<svg id="Capa_1" enable-background="new 0 0 512 512" height="512" viewBox="0 0 512 512" width="512" xmlns="http://www.w3.org/2000/svg"><path d="m295.21 195.579 66.297-66.297c-24.152-20.142-54.126-33.479-86.99-37.172z"/><path d="m237.482 92.11c-32.864 3.693-62.838 17.031-86.99 37.172l66.297 66.297z"/><path d="m240.707 228.944c-1.307 6.5-6.453 10.695-11.763 11.763l-76.465 15.293 76.465 15.293c6.387 1.285 10.673 6.348 11.763 11.763l15.293 76.465 15.293-76.465c1.309-6.508 6.464-10.697 11.763-11.763l76.464-15.293-76.465-15.293c-6.508-1.309-10.697-6.464-11.763-11.763l-15.292-76.465z"/><path d="m382.718 150.493-66.297 66.297 103.469 20.693c-3.693-32.864-17.03-62.839-37.172-86.99z"/><path d="m271 0v61.76c95.548 7.328 171.912 83.692 179.24 179.24h61.76c-7.538-128.624-112.376-233.462-241-241z"/><path d="m129.282 361.507 66.297-66.297-103.469-20.693c3.693 32.864 17.03 62.839 37.172 86.99z"/><path d="m92.11 237.483 103.469-20.693-66.297-66.297c-20.142 24.151-33.479 54.126-37.172 86.99z"/><path d="m241 512v-61.76c-95.548-7.328-171.912-83.692-179.24-179.24h-61.76c7.538 128.624 112.376 233.462 241 241z"/><path d="m0 241h61.76c7.328-95.548 83.692-171.912 179.24-179.24v-61.76c-128.624 7.538-233.462 112.376-241 241z"/><path d="m271 512c128.624-7.538 233.462-112.376 241-241h-61.76c-7.328 95.548-83.692 171.912-179.24 179.24z"/><path d="m216.79 316.421-66.297 66.297c24.152 20.142 54.126 33.479 86.99 37.172z"/><path d="m419.89 274.517-103.469 20.693 66.297 66.297c20.142-24.151 33.479-54.126 37.172-86.99z"/><path d="m274.517 419.89c32.864-3.693 62.838-17.031 86.99-37.172l-66.297-66.297z"/></svg>